<svg width="565" height="509" viewBox="0 0 565 509" fill="none" xmlns="http://www.w3.org/2000/svg">
<g clip-path="url(#clip0_17_193)">
<path opacity="0.87" d="M536.91 488.097C552.424 488.097 565 487.169 565 486.023C565 484.878 552.424 483.949 536.91 483.949C521.396 483.949 508.819 484.878 508.819 486.023C508.819 487.169 521.396 488.097 536.91 488.097Z" fill="#515159"/>
<path d="M540.421 405.285C540.421 405.285 516.321 389.01 531.802 365.235C547.284 341.461 543.453 333.323 538.027 326.622C551.114 341.62 548.242 358.534 540.421 369.384C532.6 380.075 531.483 394.754 540.421 405.285Z" fill="#AFAFAF"/>
<path d="M560.052 425.55H513.767L518.236 484.268H555.583L560.052 425.55Z" fill="#FEFEFE"/>
<path d="M565 422.518H508.819V429.379H565V422.518Z" fill="#8B8B8C"/>
<path d="M553.987 416.455H519.832C516.48 416.455 513.767 419.167 513.767 422.518H560.052C560.052 419.167 557.339 416.455 553.987 416.455Z" fill="#5A5A63"/>
<path d="M557.499 459.057L558.616 444.856H515.204L516.321 459.057H557.499Z" fill="#EDB62B"/>
<path d="M560.052 422.518C560.052 419.008 557.339 416.295 553.987 416.295H537.069C540.421 416.295 543.134 419.008 543.134 422.358H548.082V429.219H542.815L538.665 483.949H555.583L559.733 429.219H565V422.358H560.052V422.518Z" fill="#AFAFAF"/>
<path d="M311.229 57.7611C311.229 57.7611 320.965 27.285 306.76 18.5091C297.662 13.8818 292.874 19.626 292.874 19.626C292.874 19.626 288.565 -1.91473 259.357 5.26552C240.364 9.73323 234.459 0 234.459 0C234.459 0 234.299 26.9658 247.387 35.1034C256.804 43.2411 253.133 65.1009 253.133 65.1009L311.229 57.7611Z" fill="#2F2F35"/>
<path opacity="0.87" d="M397.416 455.707C397.416 455.707 450.085 457.302 464.769 470.865C480.25 485.066 496.37 507.404 429.975 506.926C363.42 506.447 304.526 488.257 248.824 494.001C193.122 499.745 147.315 509.798 133.909 507.564C120.502 505.33 215.626 459.855 215.626 459.855L392.149 466.397L397.416 455.707Z" fill="#515159"/>
<path d="M348.098 337.472L281.702 330.77L215.307 337.472C215.307 337.472 211.317 368.746 198.548 385.5C281.702 415.338 281.702 415.338 281.702 415.338C281.702 415.338 281.702 415.338 364.856 385.5C352.088 368.746 348.098 337.472 348.098 337.472Z" fill="#A87D1D"/>
<path d="M279.148 414.38C281.702 415.338 281.702 415.338 281.702 415.338C281.702 415.338 281.702 415.338 284.256 414.38C299.578 379.277 295.907 339.706 294.949 332.047L281.542 330.77L264.465 332.525C264.305 340.823 263.826 379.436 279.148 414.38Z" fill="#A87D1D"/>
<path d="M214.987 340.025C214.987 340.025 284.734 370.82 352.247 357.417C349.215 346.407 348.097 337.472 348.097 337.472L281.702 330.77L228.394 336.195L214.987 340.025Z" fill="#895436"/>
<path d="M247.228 35.1034C256.644 43.2411 252.974 65.1009 252.974 65.1009L265.263 63.5053C277.872 52.1765 292.236 37.9755 290.161 32.5505C286.49 23.1364 275.957 13.7223 256.644 12.6053C237.173 11.4884 234.3 0 234.3 0C234.3 0 234.3 26.9658 247.228 35.1034Z" fill="#515159"/>
<path d="M279.308 111.533L224.404 131.478L215.466 337.472C215.466 337.472 234.778 346.567 281.862 346.567C281.862 132.436 281.862 114.724 281.862 114.724L279.308 111.533Z" fill="white"/>
<path d="M284.256 111.533L339.16 131.478L348.257 337.472C348.257 337.472 328.945 346.567 281.862 346.567C281.862 132.436 281.862 114.724 281.862 114.724L284.256 111.533Z" fill="white"/>
<path d="M224.564 131.478L224.244 131.638C208.284 137.382 195.356 149.668 189.131 165.465L130.237 307.953L180.353 313.857L222.808 209.982L224.564 131.478Z" fill="#FF7E6E"/>
<path d="M339 131.478L339.319 131.638C355.28 137.382 368.208 149.668 374.432 165.465L433.326 307.953L383.21 313.857L340.756 209.982L339 131.478Z" fill="#FF7E6E"/>
<path d="M397.256 220.673L374.432 165.305C368.048 149.509 355.28 137.223 339.319 131.478L339 131.319L340.915 209.823L352.886 239.182C368.846 225.939 384.966 221.63 397.256 220.673Z" fill="#E8E8E8"/>
<path d="M166.308 220.673L189.132 165.305C195.516 149.509 208.284 137.223 224.245 131.478L224.564 131.319L222.649 209.823L210.678 239.342C194.558 225.939 178.598 221.63 166.308 220.673Z" fill="#E8E8E8"/>
<path d="M342.671 212.695C342.671 212.695 341.235 210.621 339.16 206.791L341.075 209.982C341.075 209.982 320.167 325.824 264.465 346.088C269.891 346.407 275.637 346.567 282.021 346.567C328.945 346.567 348.417 337.472 348.417 337.472L342.671 212.695Z" fill="#D3D3D3"/>
<path opacity="0.52" d="M198.708 197.537C212.912 157.806 213.71 158.125 244.514 150.945C275.477 143.605 269.412 115.203 269.412 115.203L240.524 125.734L236.055 127.33L224.564 131.478L224.244 131.638C208.284 137.382 195.356 149.668 189.131 165.465L132.631 302.049C156.412 284.338 186.578 231.204 198.708 197.537Z" fill="#FFF6E7"/>
<path opacity="0.28" d="M364.856 197.537C350.651 157.806 349.853 158.125 319.05 150.945C288.086 143.605 294.151 115.203 294.151 115.203L323.04 125.734L327.509 127.33L339 131.478L339.32 131.638C355.28 137.382 368.208 149.668 374.433 165.465L430.933 302.049C406.992 284.338 376.986 231.204 364.856 197.537Z" fill="#4C2A29"/>
<path d="M281.862 136.903H281.542C273.403 136.903 266.859 130.361 266.859 122.224V87.1204H296.545V122.224C296.545 130.361 290.002 136.903 281.862 136.903Z" fill="#FF7E6E"/>
<path d="M296.386 114.246C296.545 114.246 296.545 114.246 296.545 114.246V87.1204H282.66L266.859 92.8646C267.018 92.8646 272.764 114.246 296.386 114.246Z" fill="#4C2A29"/>
<path d="M316.336 66.0583C316.336 71.3238 312.027 75.632 306.76 75.632C301.493 75.632 297.184 71.3238 297.184 66.0583C297.184 60.7928 301.493 56.4846 306.76 56.4846C312.027 56.6442 316.336 60.7928 316.336 66.0583Z" fill="#C64F4F"/>
<path d="M308.675 75.4724C310.112 69.8878 310.91 62.8671 311.229 57.7612C309.952 56.9633 308.356 56.6442 306.76 56.6442C301.493 56.6442 297.184 60.9524 297.184 66.2179C297.184 71.4834 301.493 75.7916 306.76 75.7916C307.398 75.632 308.037 75.4724 308.675 75.4724Z" fill="#803D3D"/>
<path d="M247.228 66.0583C247.228 71.3238 251.537 75.632 256.804 75.632C262.071 75.632 266.38 71.3238 266.38 66.0583C266.38 60.7928 262.071 56.4846 256.804 56.4846C251.537 56.6442 247.228 60.7928 247.228 66.0583Z" fill="#C64F4F"/>
<path d="M254.889 75.4724C253.452 69.8878 252.654 62.8671 252.335 57.7612C253.612 56.9633 255.208 56.6442 256.804 56.6442C262.071 56.6442 266.38 60.9524 266.38 66.2179C266.38 71.4834 262.071 75.7916 256.804 75.7916C256.165 75.632 255.527 75.4724 254.889 75.4724Z" fill="#803D3D"/>
<path d="M298.621 32.8696H281.862H264.944L256.645 51.0595L258.081 68.9304C258.879 78.5041 264.944 95.0984 273.722 99.0874C276.276 100.364 278.989 101.162 281.702 101.162C284.416 101.162 287.129 100.364 289.683 99.0874C298.461 95.0984 304.526 78.5041 305.324 68.9304L306.76 51.0595L298.621 32.8696Z" fill="#FF7E6E"/>
<path d="M290.321 55.5273C290.321 55.5273 295.907 57.1229 302.291 55.5273" stroke="#2F2F35" stroke-width="1.3362" stroke-miterlimit="10" stroke-linecap="round"/>
<path d="M288.565 45.1558C288.565 45.1558 296.705 43.7197 301.653 46.5918" stroke="#2F2F35" stroke-width="2.6723" stroke-miterlimit="10" stroke-linecap="round"/>
<path d="M273.243 55.5273C273.243 55.5273 267.657 57.1229 261.273 55.5273" stroke="#2F2F35" stroke-width="1.3362" stroke-miterlimit="10" stroke-linecap="round"/>
<path d="M274.999 45.1558C274.999 45.1558 266.859 43.7197 261.911 46.5918" stroke="#2F2F35" stroke-width="2.6723" stroke-miterlimit="10" stroke-linecap="round"/>
<path opacity="0.52" d="M268.455 71.1642C267.338 52.9743 265.103 32.71 265.103 32.71L256.804 50.9L257.283 56.6442C257.123 56.6442 257.123 56.6442 256.963 56.6442C251.697 56.6442 247.387 60.9523 247.387 66.2179C247.387 71.4834 251.697 75.7915 256.963 75.7915C257.761 75.7915 258.56 75.632 259.358 75.4724C261.592 84.7269 267.019 95.8962 273.882 99.247C276.435 100.523 279.149 101.321 281.862 101.321C281.702 101.002 269.572 89.3542 268.455 71.1642Z" fill="#FFF6E7"/>
<path d="M339 418.05L149.39 360.608C124.173 352.949 97.6783 367.788 91.1345 393.159L90.9749 394.116C84.1119 420.284 101.19 446.771 127.844 451.398C197.91 463.685 324.955 484.428 391.829 486.981L420.079 505.809C424.389 508.681 429.975 508.202 433.646 504.692L433.805 504.532C438.274 500.384 438.434 493.363 434.284 489.055L429.815 484.428C429.815 484.428 425.825 465.28 406.513 457.143C387.201 449.005 385.286 428.9 380.817 418.05C376.348 407.04 347.3 401.615 339 418.05Z" fill="#8C4242"/>
<path d="M91.1345 393.159C97.8379 367.788 124.332 352.949 149.39 360.608L213.711 380.075C203.975 392.201 191.207 416.614 190.887 462.089C167.425 458.26 145.719 454.59 127.684 451.398C101.03 446.771 84.1119 420.284 90.9749 394.116L91.1345 393.159Z" fill="#EDB62B"/>
<path opacity="0.67" d="M150.986 433.049C150.986 440.708 149.071 448.048 145.879 454.59C139.495 453.473 133.43 452.515 127.844 451.398C101.03 446.771 84.1119 420.284 90.9749 394.116L91.2941 393.159C91.9325 390.925 92.7305 388.691 93.5285 386.617C96.7206 385.978 100.072 385.5 103.424 385.5C129.599 385.5 150.986 406.721 150.986 433.049Z" fill="#A87D1D"/>
<path d="M348.098 444.378C348.098 444.378 345.385 460.334 319.05 454.59" stroke="#7B3C38" stroke-width="1.139" stroke-miterlimit="10"/>
<path opacity="0.28" d="M364.856 437.038C364.856 437.038 324.476 435.283 239.088 419.965C169.819 407.679 149.55 372.256 144.283 359.172C146.038 359.491 147.794 359.97 149.39 360.449L339 417.891C347.14 401.456 376.188 407.04 380.817 417.891C385.286 428.741 387.201 448.845 406.513 456.983C425.825 465.121 429.815 484.268 429.815 484.268C429.815 484.268 409.865 471.503 397.415 468.791C384.966 466.078 364.856 437.038 364.856 437.038Z" fill="#4C2A29"/>
<path d="M373.635 486.023C373.635 486.023 408.428 519.371 438.115 505.649C443.063 503.415 444.659 497.033 441.307 492.725C416.249 458.738 384.807 421.88 372.837 407.838C369.804 404.328 365.016 402.892 360.707 404.168L326.551 414.061L373.635 486.023Z" fill="#2F2F35"/>
<path d="M326.551 414.221L293.672 404.168L318.571 480.598L373.634 486.023L326.551 414.221Z" fill="#A5A5A5"/>
<path d="M224.564 418.05L414.174 360.608C439.391 352.949 465.886 367.788 472.43 393.159L472.749 394.116C479.612 420.284 462.534 446.771 435.88 451.398C365.814 463.685 238.768 484.428 171.894 486.981L143.644 505.809C139.335 508.681 133.749 508.202 130.078 504.692L129.918 504.532C125.449 500.384 125.29 493.363 129.439 489.055L133.908 484.428C133.908 484.428 137.898 465.28 157.211 457.143C176.523 449.005 178.438 428.9 182.907 418.05C187.216 407.04 216.264 401.615 224.564 418.05Z" fill="#FF7E6E"/>
<path d="M472.43 393.159C465.726 367.788 439.232 352.949 414.174 360.608L349.854 380.075C359.589 392.201 372.358 416.614 372.677 462.089C396.139 458.26 417.845 454.59 435.88 451.398C462.534 446.771 479.612 420.284 472.749 394.116L472.43 393.159Z" fill="#EDB62B"/>
<path opacity="0.67" d="M412.578 433.049C412.578 440.708 414.493 448.048 417.685 454.59C424.07 453.473 430.135 452.515 435.721 451.398C462.375 446.771 479.452 420.284 472.589 394.116L472.27 393.159C471.632 390.925 470.834 388.691 470.036 386.617C466.844 385.978 463.492 385.5 460.14 385.5C433.965 385.5 412.578 406.721 412.578 433.049Z" fill="#A87D1D"/>
<path opacity="0.28" d="M198.708 437.038C198.708 437.038 239.088 435.283 324.476 419.965C393.745 407.679 414.015 372.256 419.282 359.172C417.526 359.491 415.77 359.97 414.174 360.449L224.564 417.891C216.424 401.456 187.376 407.04 182.748 417.891C178.279 428.741 176.363 448.845 157.051 456.983C137.739 465.121 133.749 484.268 133.749 484.268C133.749 484.268 153.7 471.503 166.149 468.791C178.757 466.078 198.708 437.038 198.708 437.038Z" fill="#4C2A29"/>
<path opacity="0.57" d="M157.051 456.983L128.641 451.718C102.945 447.569 85.5482 423.316 89.8575 397.626L90.0172 396.669C94.8053 368.746 123.215 351.354 150.348 359.97L203.975 377.043" stroke="white" stroke-width="1.1139" stroke-miterlimit="10"/>
<path d="M271.967 70.8452C271.009 70.8452 270.371 71.9621 271.009 72.7599C273.882 76.4298 277.553 78.6636 281.702 78.6636C285.852 78.6636 289.683 76.4298 292.396 72.7599C293.034 71.9621 292.396 70.8452 291.438 70.8452H271.967Z" fill="white"/>
<path d="M284.575 55.2081V65.1009C284.575 65.1009 282.341 63.8244 279.148 65.1009" stroke="#2F2F35" stroke-width="0.8212" stroke-miterlimit="10" stroke-linecap="round"/>
<path d="M292.715 19.626H290.321V35.1035H292.715V19.626Z" fill="#FF7E6E"/>
<path d="M433.326 307.793L433.486 308.113C439.232 323.909 432.369 341.301 417.526 349.12L316.336 402.094L315.857 400.818C306.92 377.841 316.336 351.673 337.723 339.546L383.37 313.697L433.326 307.793Z" fill="#FF7E6E"/>
<path opacity="0.28" d="M411.939 340.344C411.939 344.014 412.897 347.524 414.493 350.715L417.526 349.12C429.177 343.056 435.88 330.77 435.401 318.165C434.922 318.165 434.603 318.165 434.124 318.165C421.835 318.165 411.939 328.058 411.939 340.344Z" fill="#4C2A29"/>
<path d="M383.21 313.857L411.939 297.582" stroke="#4C2A29" stroke-width="1.3362" stroke-miterlimit="10" stroke-linecap="round"/>
<path d="M130.557 307.793L130.397 308.113C124.651 323.909 131.514 341.301 146.358 349.12L247.547 402.094L248.026 400.818C256.964 377.841 247.547 351.673 226.16 339.546L180.513 313.697L130.557 307.793Z" fill="#FF7E6E"/>
<path opacity="0.28" d="M151.944 340.344C151.944 344.014 150.986 347.524 149.39 350.715L146.358 349.12C134.707 343.056 128.003 330.77 128.482 318.165C128.961 318.165 129.28 318.165 129.759 318.165C141.889 318.165 151.944 328.058 151.944 340.344Z" fill="#4C2A29"/>
<path d="M180.513 313.857L151.944 297.582" stroke="#4C2A29" stroke-width="1.3362" stroke-miterlimit="10" stroke-linecap="round"/>
<path d="M236.374 396.19C236.374 396.19 241.482 368.108 224.883 359.172" stroke="#4C2A29" stroke-width="1.3362" stroke-miterlimit="10" stroke-linecap="round"/>
<path d="M327.189 396.19C327.189 396.19 322.082 368.108 338.681 359.172" stroke="#4C2A29" stroke-width="1.3362" stroke-miterlimit="10" stroke-linecap="round"/>
<path d="M189.93 486.023C189.93 486.023 155.136 519.371 125.45 505.649C120.502 503.415 118.906 497.033 122.257 492.725C147.315 458.738 178.757 421.88 190.728 407.838C193.76 404.328 198.548 402.892 202.858 404.168L237.013 414.061L189.93 486.023Z" fill="#2F2F35"/>
<path d="M237.013 414.221L269.892 404.168L244.993 480.598L189.93 486.023L237.013 414.221Z" fill="#ECECEC"/>
<path opacity="0.28" d="M223.447 434.964C233.183 434.006 245.791 432.411 261.433 430.177L269.892 404.328L237.173 414.221L223.447 434.964Z" fill="#4C2A29"/>
<path d="M200.304 462.887L181.311 491.767C180.194 493.523 177.959 494.48 175.884 494.32H175.725C171.575 493.682 169.5 489.055 171.894 485.704L191.366 456.983C192.643 455.228 194.877 454.27 196.952 454.749H197.112C200.783 455.547 202.379 459.696 200.304 462.887Z" fill="#FFF6E7"/>
<path d="M279.149 295.507H162.957L191.526 397.626H279.149H366.772L395.341 295.507H279.149Z" fill="#AFAFAF"/>
<path d="M366.772 397.626H191.526V412.466H366.772V397.626Z" fill="#8B8B8C"/>
<path d="M279.308 369.224C294.998 369.224 307.718 362.724 307.718 354.704C307.718 346.685 294.998 340.184 279.308 340.184C263.618 340.184 250.898 346.685 250.898 354.704C250.898 362.724 263.618 369.224 279.308 369.224Z" fill="#5A5A63"/>
<path d="M395.5 288.806H162.957V295.507H395.5V288.806Z" fill="#5A5A63"/>
<path d="M218.818 401.934H201.262V407.838H218.818V401.934Z" fill="#5A5A63"/>
<path d="M244.195 401.934H226.639V407.838H244.195V401.934Z" fill="#5A5A63"/>
<path d="M366.772 405.126H260.156" stroke="#0F1201" stroke-miterlimit="10"/>
<path opacity="0.54" d="M162.957 295.507L191.685 397.626H254.091C291.119 354.704 313.623 295.507 313.623 295.507V288.806H163.116V295.507H162.957Z" fill="white"/>
<path opacity="0.57" d="M162.957 295.507H395.341" stroke="#0F1201" stroke-miterlimit="10"/>
<path opacity="0.87" d="M42.1356 488.097C65.4064 488.097 84.2712 487.169 84.2712 486.023C84.2712 484.878 65.4064 483.949 42.1356 483.949C18.8647 483.949 0 484.878 0 486.023C0 487.169 18.8647 488.097 42.1356 488.097Z" fill="#515159"/>
<path d="M48.3602 464.961L51.0735 461.929L49.637 463.365L51.0735 461.929C50.7542 461.61 17.3969 427.943 57.6172 275.881L53.6271 274.764C12.7684 430.177 46.9237 463.685 48.3602 464.961Z" fill="#5A5A63"/>
<path d="M35.911 278.594C51.0734 292.476 48.5198 308.751 48.5198 308.751C48.5198 308.751 33.3573 302.209 29.6864 281.945C29.048 278.594 33.1977 276.2 35.911 278.594Z" fill="#5A5A63"/>
<path d="M74.0563 288.487C54.1057 293.273 48.5195 308.91 48.5195 308.91C48.5195 308.91 64.9588 310.506 77.8868 294.55C80.1212 291.678 77.5676 287.529 74.0563 288.487Z" fill="#5A5A63"/>
<path d="M25.5368 318.324C42.1356 330.611 41.0184 347.045 41.0184 347.045C41.0184 347.045 25.2176 342.099 19.6314 322.313C18.6738 318.963 22.6639 316.25 25.5368 318.324Z" fill="#5A5A63"/>
<path d="M64.3208 324.228C44.8491 331.089 41.0186 347.045 41.0186 347.045C41.0186 347.045 57.6174 347.045 68.7897 329.813C70.705 326.781 67.8321 323.111 64.3208 324.228Z" fill="#5A5A63"/>
<path d="M18.8333 353.268C36.2302 364.278 36.3898 380.872 36.3898 380.872C36.3898 380.872 20.2697 377.043 13.2471 357.736C12.1299 354.385 15.8008 351.354 18.8333 353.268Z" fill="#5A5A63"/>
<path d="M58.0959 356.3C39.2626 364.438 36.5493 380.872 36.5493 380.872C36.5493 380.872 53.1482 379.596 62.8841 361.566C64.6397 358.374 61.4476 354.864 58.0959 356.3Z" fill="#5A5A63"/>
<path d="M68.4704 248.277C68.7896 268.86 55.0636 278.115 55.0636 278.115C55.0636 278.115 49.3178 262.638 61.767 246.043C64.0014 243.171 68.4704 244.607 68.4704 248.277Z" fill="#5A5A63"/>
<path d="M62.7246 397.626H18.5142V485.066H62.7246V397.626Z" fill="#EDB62B"/>
<path opacity="0.67" d="M62.7244 397.626H45.0083V485.066H62.7244V397.626Z" fill="#A87D1D"/>
</g>
<defs>
<clipPath id="clip0_17_193">
<rect width="565" height="509" fill="white"/>
</clipPath>
</defs>
</svg>
